<svg xmlns="http://www.w3.org/2000/svg" viewBox="0 0 1000 600"><defs><linearGradient id="b" x2="1" y2="1"><stop stop-color="#a9dfec"/><stop offset="1" stop-color="#ffe0a0"/></linearGradient><filter id="s"><feDropShadow dy="12" stdDeviation="10" flood-opacity=".22"/></filter></defs><rect width="1000" height="600" rx="40" fill="url(#b)"/><path d="M0 430h1000v170H0z" fill="#84bd68"/><g filter="url(#s)" stroke="#573824" stroke-width="9"><circle cx="210" cy="320" r="95" fill="#dfa952"/><circle cx="500" cy="320" r="95" fill="#8fbd6a"/><circle cx="790" cy="320" r="95" fill="#75a8d0"/><path d="M145 255l-45-60 75 25M275 255l45-60-75 25" fill="#dfa952"/><path d="M445 385q55-95 110 0" fill="#63a957"/><path d="M735 390q55-75 110 0" fill="#f0ca52"/></g><g fill="#333"><circle cx="185" cy="315" r="8"/><circle cx="235" cy="315" r="8"/><circle cx="475" cy="315" r="8"/><circle cx="525" cy="315" r="8"/><circle cx="765" cy="315" r="8"/><circle cx="815" cy="315" r="8"/></g><g filter="url(#s)"><path d="M140 490q70-70 140 0" fill="#d75b4e"/><path d="M440 490q60-100 120 0" fill="#64a852"/><ellipse cx="790" cy="480" rx="75" ry="35" fill="#d7b25b"/></g></svg>