<svg xmlns="http://www.w3.org/2000/svg" viewBox="0 0 1000 600"><defs><linearGradient id="b" x2="1" y2="1"><stop stop-color="#8dd7ee"/><stop offset=".6" stop-color="#ffeab0"/><stop offset="1" stop-color="#f7b76d"/></linearGradient><filter id="s"><feDropShadow dx="0" dy="12" stdDeviation="10" flood-opacity=".23"/></filter></defs><rect width="1000" height="600" rx="40" fill="url(#b)"/><circle cx="860" cy="85" r="55" fill="#fff4a4"/><path d="M0 430q180-70 360 0t360 0 280 0v170H0z" fill="#8cc66e"/><g filter="url(#s)" transform="translate(70 230)"><rect x="20" y="60" width="210" height="240" rx="35" fill="#ed6653" stroke="#573824" stroke-width="10"/><path d="M75 60V20h100v40" fill="none" stroke="#573824" stroke-width="12"/><path d="M70 135h110M70 190h110" stroke="#ffd45d" stroke-width="12"/><circle cx="65" cy="310" r="18" fill="#333"/><circle cx="185" cy="310" r="18" fill="#333"/></g><g filter="url(#s)" transform="translate(340 245)"><path d="M0 0h260v180H0z" fill="#fff4d4" stroke="#573824" stroke-width="10"/><path d="M35 45h190M35 90h130M35 135h175" stroke="#4f91c9" stroke-width="10" stroke-linecap="round"/><circle cx="215" cy="130" r="25" fill="#f3c842"/></g><g filter="url(#s)" transform="translate(635 105)"><path d="M0 100l270-65-140 105 110 50-30 28-130-42-58 50-27-10 32-65-84-28z" fill="#fff" stroke="#573824" stroke-width="9"/></g><g filter="url(#s)" transform="translate(690 355)"><circle cx="90" cy="90" r="80" fill="#65b7df" stroke="#573824" stroke-width="9"/><path d="M30 75q55-45 120 0M45 125q50 30 100 0M90 12v156" fill="none" stroke="#eaf7dd" stroke-width="10"/></g></svg>