<svg xmlns="http://www.w3.org/2000/svg" viewBox="0 0 1000 600"><defs><linearGradient id="b" x2="1" y2="1"><stop stop-color="#b6e6f2"/><stop offset="1" stop-color="#ffe0a2"/></linearGradient><filter id="s"><feDropShadow dy="12" stdDeviation="10" flood-opacity=".2"/></filter></defs><rect width="1000" height="600" rx="40" fill="url(#b)"/><path d="M0 420q180-70 350 0t350 0 300 0v180H0z" fill="#8dc66e"/><g filter="url(#s)" stroke="#573824" stroke-width="9"><circle cx="230" cy="320" r="95" fill="#e6b45d"/><path d="M165 265l-50-65 80 25M295 265l50-65-80 25" fill="#e6b45d"/><circle cx="500" cy="340" r="95" fill="#f3e4c3"/><path d="M430 285l-60-50 85 10M570 285l60-50-85 10" fill="#f3e4c3"/><circle cx="775" cy="345" r="90" fill="#f3d64f"/><path d="M720 295l-30-65 70 45M830 295l30-65-70 45" fill="#f3d64f"/></g><g fill="#333"><circle cx="205" cy="320" r="8"/><circle cx="255" cy="320" r="8"/><circle cx="475" cy="340" r="8"/><circle cx="525" cy="340" r="8"/><circle cx="750" cy="345" r="8"/><circle cx="800" cy="345" r="8"/></g></svg>