<svg xmlns="http://www.w3.org/2000/svg" viewBox="0 0 1000 600"><defs><linearGradient id="bg" x1="0" y1="0" x2="1" y2="1"><stop stop-color="#8edbef"/><stop offset=".55" stop-color="#fff0b4"/><stop offset="1" stop-color="#ffc273"/></linearGradient><linearGradient id="lemon" x1="0" y1="0" x2="1" y2="1"><stop stop-color="#fff16a"/><stop offset="1" stop-color="#e7b92d"/></linearGradient><linearGradient id="coffee" x1="0" y1="0" x2="1" y2="1"><stop stop-color="#8a5434"/><stop offset="1" stop-color="#4f2d22"/></linearGradient><filter id="sh"><feDropShadow dx="0" dy="12" stdDeviation="10" flood-color="#55311f" flood-opacity=".24"/></filter></defs><rect width="1000" height="600" rx="40" fill="url(#bg)"/><circle cx="865" cy="90" r="58" fill="#fff4a0" opacity=".9"/><path d="M0 440Q180 390 370 430T710 415T1000 430V600H0Z" fill="#cf8955" opacity=".42"/><g filter="url(#sh)" transform="translate(75 205)"><path d="M30 45h155l-15 285H45Z" fill="#f8fbef" fill-opacity=".82" stroke="#65402b" stroke-width="10"/><path d="M48 115h120l-10 195H58Z" fill="#f4df49" opacity=".88"/><path d="M110 45l45-55" stroke="#ef6650" stroke-width="12" stroke-linecap="round"/><circle cx="55" cy="90" r="36" fill="url(#lemon)" stroke="#65402b" stroke-width="8"/><path d="M55 58v64M23 90h64M33 68l44 44M77 68l-44 44" stroke="#fff5a4" stroke-width="5"/></g><g filter="url(#sh)" transform="translate(310 250)"><path d="M25 55h155v180q0 50-50 50H75q-50 0-50-50Z" fill="#fff3db" stroke="#65402b" stroke-width="10"/><path d="M180 95h35q45 0 45 48t-45 48h-35" fill="none" stroke="#65402b" stroke-width="10"/><ellipse cx="102" cy="72" rx="66" ry="30" fill="url(#coffee)" stroke="#65402b" stroke-width="8"/><path d="M75 5q-18 25 0 48M115 0q-18 25 0 48M150 8q-18 25 0 48" fill="none" stroke="#fff" stroke-opacity=".8" stroke-width="7" stroke-linecap="round"/></g><g filter="url(#sh)" transform="translate(565 205)"><rect x="25" y="45" width="150" height="285" rx="24" fill="#f8fbef" fill-opacity=".85" stroke="#65402b" stroke-width="10"/><path d="M42 155h116v155H42Z" fill="#f6e8c8"/><path d="M100 45V-5" stroke="#4f87c8" stroke-width="12" stroke-linecap="round"/><path d="M55 120q45-60 90 0" fill="#fff" stroke="#65402b" stroke-width="7"/><circle cx="100" cy="130" r="23" fill="#9d5a37"/><path d="M67 215h66" stroke="#b6794d" stroke-width="12" stroke-linecap="round"/></g><g filter="url(#sh)" transform="translate(795 235)"><path d="M15 60h145l-15 255H30Z" fill="#fff" fill-opacity=".84" stroke="#65402b" stroke-width="10"/><path d="M34 155h108l-9 140H43Z" fill="#f6a4b5" opacity=".92"/><path d="M88 60l35-55" stroke="#65a9d6" stroke-width="11" stroke-linecap="round"/><path d="M42 125q46-50 92 0" fill="#fff5dc" stroke="#65402b" stroke-width="7"/><circle cx="88" cy="132" r="18" fill="#e95e72"/></g><g filter="url(#sh)" transform="translate(440 430)"><ellipse cx="80" cy="45" rx="72" ry="35" fill="#fff" stroke="#65402b" stroke-width="8"/><path d="M28 45q52 70 104 0" fill="#d37d4e" stroke="#65402b" stroke-width="8"/><path d="M50 42h60" stroke="#8a4c31" stroke-width="10" stroke-linecap="round"/></g></svg>