<svg xmlns="http://www.w3.org/2000/svg" viewBox="0 0 1000 600"><defs><linearGradient id="b" x2="1" y2="1"><stop stop-color="#9edff0"/><stop offset="1" stop-color="#ffe6a1"/></linearGradient><filter id="s"><feDropShadow dx="0" dy="12" stdDeviation="9" flood-opacity=".23"/></filter></defs><rect width="1000" height="600" rx="40" fill="url(#b)"/><path d="M0 360h1000v240H0z" fill="#75b765"/><path d="M0 430h1000v170H0z" fill="#59646c"/><g stroke="#fff" stroke-width="20"><path d="M430 440v150M500 440v150M570 440v150M640 440v150"/></g><g filter="url(#s)" transform="translate(110 110)"><rect x="55" y="0" width="40" height="360" rx="15" fill="#555"/><rect x="0" y="15" width="150" height="260" rx="45" fill="#30383d" stroke="#563824" stroke-width="9"/><circle cx="75" cy="75" r="38" fill="#ed5b4e"/><circle cx="75" cy="145" r="38" fill="#f4c948"/><circle cx="75" cy="215" r="38" fill="#58b86c"/></g><g filter="url(#s)" transform="translate(310 135)"><path d="M35 105q0-100 100-100t100 100" fill="#f2cf3f" stroke="#563824" stroke-width="9"/><path d="M55 100h160v50H55z" fill="#f2cf3f" stroke="#563824" stroke-width="9"/><path d="M65 55q70-40 140 0" fill="none" stroke="#fff2a0" stroke-width="9"/></g><g filter="url(#s)" transform="translate(655 100)"><path d="M70 0h160v160H70z" fill="#fff" stroke="#563824" stroke-width="9"/><path d="M150 160v220" stroke="#563824" stroke-width="20"/><path d="M95 80h110" stroke="#4b94d0" stroke-width="22"/><path d="M115 45l70 70M185 45l-70 70" stroke="#4b94d0" stroke-width="14"/></g><g filter="url(#s)" transform="translate(250 350)"><circle cx="70" cy="75" r="55" fill="none" stroke="#253a47" stroke-width="12"/><circle cx="230" cy="75" r="55" fill="none" stroke="#253a47" stroke-width="12"/><path d="M70 75l70-85 90 85H70l55-60h50" fill="none" stroke="#253a47" stroke-width="10"/></g></svg>